<svg xmlns="http://www.w3.org/2000/svg" width="900" height="650" viewBox="0 0 900 650" role="img" aria-label="Commercial solar project placeholder">
  <defs>
    <linearGradient id="bg" x1="0" x2="1" y1="0" y2="1"><stop stop-color="#07111f"/><stop offset="1" stop-color="#153b2b"/></linearGradient>
    <linearGradient id="panel" x1="0" x2="1"><stop stop-color="#2563eb"/><stop offset="1" stop-color="#020617"/></linearGradient>
  </defs>
  <rect width="900" height="650" fill="url(#bg)"/>
  <rect x="135" y="230" width="630" height="310" rx="8" fill="#111827"/>
  <rect x="170" y="265" width="560" height="55" fill="#27364d"/>
  <rect x="170" y="350" width="560" height="55" fill="#27364d"/>
  <rect x="170" y="435" width="560" height="55" fill="#27364d"/>
  <g transform="translate(165 124) skewX(-17)">
    <rect width="565" height="112" fill="url(#panel)" stroke="#93c5fd" stroke-opacity="0.5"/>
    <path d="M70 0 V112 M140 0 V112 M210 0 V112 M280 0 V112 M350 0 V112 M420 0 V112 M490 0 V112 M0 56 H565" stroke="#cbd5e1" stroke-opacity="0.34"/>
  </g>
  <circle cx="715" cy="120" r="58" fill="#ffc107" opacity="0.85"/>
  <path d="M0 545 L900 490 L900 650 L0 650 Z" fill="#07111f"/>
</svg>
